<svg xmlns="http://www.w3.org/2000/svg" viewBox="2306 404 1633 1000" width="817" height="500"><rect x="2306" y="404" width="1633" height="1000" fill="#161209"/><path d="M469.3 97.3 469.3 258.5 329.6 339.1 190 258.5 190 97.2 329.6 16.6ZM748.6 97.3 748.6 258.5 608.9 339.1 469.3 258.5 469.3 97.2 608.9 16.6ZM1027.9 97.3 1027.9 258.5 888.2 339.1 748.6 258.5 748.6 97.2 888.2 16.6ZM1307.2 97.3 1307.2 258.5 1167.5 339.1 1027.9 258.5 1027.9 97.2 1167.5 16.6ZM1586.5 97.3 1586.5 258.5 1446.8 339.1 1307.2 258.5 1307.2 97.2 1446.8 16.6ZM1865.8 97.3 1865.8 258.5 1726.1 339.1 1586.5 258.5 1586.5 97.2 1726.1 16.6ZM2145.1 97.3 2145.1 258.5 2005.4 339.1 1865.8 258.5 1865.8 97.2 2005.4 16.6ZM2424.3 97.3 2424.3 258.5 2284.7 339.1 2145.1 258.5 2145.1 97.2 2284.7 16.6ZM2703.6 97.3 2703.6 258.5 2564 339.1 2424.3 258.5 2424.3 97.2 2564 16.6ZM2982.9 97.3 2982.9 258.5 2843.3 339.1 2703.6 258.5 2703.6 97.2 2843.3 16.6ZM3262.2 97.3 3262.2 258.5 3122.6 339.1 2982.9 258.5 2982.9 97.2 3122.6 16.6ZM3541.5 97.3 3541.5 258.5 3401.9 339.1 3262.2 258.5 3262.2 97.2 3401.9 16.6ZM6893 97.3 6893 258.5 6753.4 339.1 6613.7 258.5 6613.7 97.2 6753.4 16.6ZM7172.3 97.3 7172.3 258.5 7032.7 339.1 6893 258.5 6893 97.2 7032.7 16.6ZM7451.6 97.3 7451.6 258.5 7312 339.1 7172.3 258.5 7172.3 97.2 7312 16.6ZM7730.9 97.3 7730.9 258.5 7591.3 339.1 7451.6 258.5 7451.6 97.2 7591.3 16.6ZM8010.2 97.3 8010.2 258.5 7870.6 339.1 7730.9 258.5 7730.9 97.2 7870.6 16.6ZM329.6 339.1 329.6 500.4 190 581 50.4 500.4 50.4 339.1 190 258.5ZM608.9 339.1 608.9 500.4 469.3 581 329.6 500.4 329.6 339.1 469.3 258.5ZM888.2 339.1 888.2 500.4 748.6 581 608.9 500.4 608.9 339.1 748.6 258.5ZM1167.5 339.1 1167.5 500.4 1027.9 581 888.2 500.4 888.2 339.1 1027.9 258.5ZM1446.8 339.1 1446.8 500.4 1307.2 581 1167.5 500.4 1167.5 339.1 1307.2 258.5ZM1726.1 339.1 1726.1 500.4 1586.5 581 1446.8 500.4 1446.8 339.1 1586.5 258.5ZM2005.4 339.1 2005.4 500.4 1865.8 581 1726.1 500.4 1726.1 339.1 1865.8 258.5ZM2284.7 339.1 2284.7 500.4 2145.1 581 2005.4 500.4 2005.4 339.1 2145.1 258.5ZM2564 339.1 2564 500.4 2424.3 581 2284.7 500.4 2284.7 339.1 2424.3 258.5ZM2843.3 339.1 2843.3 500.4 2703.6 581 2564 500.4 2564 339.1 2703.6 258.5ZM3122.6 339.1 3122.6 500.4 2982.9 581 2843.3 500.4 2843.3 339.1 2982.9 258.5ZM8149.9 339.1 8149.9 500.4 8010.2 581 7870.6 500.4 7870.6 339.1 8010.2 258.5ZM1586.5 581 1586.5 742.2 1446.8 822.9 1307.2 742.2 1307.2 581 1446.8 500.4ZM1865.8 581 1865.8 742.2 1726.1 822.9 1586.5 742.2 1586.5 581 1726.1 500.4ZM2145.1 581 2145.1 742.2 2005.4 822.9 1865.8 742.2 1865.8 581 2005.4 500.4ZM2424.3 581 2424.3 742.2 2284.7 822.9 2145.1 742.2 2145.1 581 2284.7 500.4ZM2703.6 581 2703.6 742.2 2564 822.9 2424.3 742.2 2424.3 581 2564 500.4ZM2982.9 581 2982.9 742.2 2843.3 822.9 2703.6 742.2 2703.6 581 2843.3 500.4ZM6334.5 581 6334.5 742.2 6194.8 822.9 6055.2 742.2 6055.2 581 6194.8 500.4ZM6613.7 581 6613.7 742.2 6474.1 822.9 6334.5 742.2 6334.5 581 6474.1 500.4ZM6893 581 6893 742.2 6753.4 822.9 6613.7 742.2 6613.7 581 6753.4 500.4ZM7451.6 581 7451.6 742.2 7312 822.9 7172.3 742.2 7172.3 581 7312 500.4ZM1446.8 822.9 1446.8 984.1 1307.2 1064.8 1167.5 984.1 1167.5 822.9 1307.2 742.2ZM1726.1 822.9 1726.1 984.1 1586.5 1064.8 1446.8 984.1 1446.8 822.9 1586.5 742.2ZM2005.4 822.9 2005.4 984.1 1865.8 1064.8 1726.1 984.1 1726.1 822.9 1865.8 742.2ZM2284.7 822.9 2284.7 984.1 2145.1 1064.8 2005.4 984.1 2005.4 822.9 2145.1 742.2ZM2564 822.9 2564 984.1 2424.3 1064.8 2284.7 984.1 2284.7 822.9 2424.3 742.2ZM2843.3 822.9 2843.3 984.1 2703.6 1064.8 2564 984.1 2564 822.9 2703.6 742.2ZM6194.8 822.9 6194.8 984.1 6055.2 1064.8 5915.5 984.1 5915.5 822.9 6055.2 742.2ZM6474.1 822.9 6474.1 984.1 6334.5 1064.8 6194.8 984.1 6194.8 822.9 6334.5 742.2ZM7312 822.9 7312 984.1 7172.3 1064.8 7032.7 984.1 7032.7 822.9 7172.3 742.2ZM1586.5 1064.8 1586.5 1226 1446.8 1306.6 1307.2 1226 1307.2 1064.8 1446.8 984.1ZM1865.8 1064.8 1865.8 1226 1726.1 1306.6 1586.5 1226 1586.5 1064.8 1726.1 984.1ZM2703.6 1064.8 2703.6 1226 2564 1306.6 2424.3 1226 2424.3 1064.8 2564 984.1ZM6334.5 1064.8 6334.5 1226 6194.8 1306.6 6055.2 1226 6055.2 1064.8 6194.8 984.1ZM6613.7 1064.8 6613.7 1226 6474.1 1306.6 6334.5 1226 6334.5 1064.8 6474.1 984.1ZM7451.6 1064.8 7451.6 1226 7312 1306.6 7172.3 1226 7172.3 1064.8 7312 984.1ZM2564 1306.6 2564 1467.9 2424.3 1548.5 2284.7 1467.9 2284.7 1306.6 2424.3 1226ZM6194.8 1306.6 6194.8 1467.9 6055.2 1548.5 5915.5 1467.9 5915.5 1306.6 6055.2 1226ZM6474.1 1306.6 6474.1 1467.9 6334.5 1548.5 6194.8 1467.9 6194.8 1306.6 6334.5 1226ZM7591.3 1306.6 7591.3 1467.9 7451.6 1548.5 7312 1467.9 7312 1306.6 7451.6 1226ZM5775.9 1548.5 5775.9 1709.8 5636.2 1790.4 5496.6 1709.8 5496.6 1548.5 5636.2 1467.9ZM6055.2 1548.5 6055.2 1709.8 5915.5 1790.4 5775.9 1709.8 5775.9 1548.5 5915.5 1467.9ZM6334.5 1548.5 6334.5 1709.8 6194.8 1790.4 6055.2 1709.8 6055.2 1548.5 6194.8 1467.9ZM7451.6 1548.5 7451.6 1709.8 7312 1790.4 7172.3 1709.8 7172.3 1548.5 7312 1467.9ZM7730.9 1548.5 7730.9 1709.8 7591.3 1790.4 7451.6 1709.8 7451.6 1548.5 7591.3 1467.9ZM5636.2 1790.4 5636.2 1951.6 5496.6 2032.2 5356.9 1951.6 5356.9 1790.4 5496.6 1709.8ZM5915.5 1790.4 5915.5 1951.6 5775.9 2032.2 5636.2 1951.6 5636.2 1790.4 5775.9 1709.8ZM6194.8 1790.4 6194.8 1951.6 6055.2 2032.2 5915.5 1951.6 5915.5 1790.4 6055.2 1709.8ZM6474.1 1790.4 6474.1 1951.6 6334.5 2032.2 6194.8 1951.6 6194.8 1790.4 6334.5 1709.8ZM7591.3 1790.4 7591.3 1951.6 7451.6 2032.2 7312 1951.6 7312 1790.4 7451.6 1709.8ZM7870.6 1790.4 7870.6 1951.6 7730.9 2032.2 7591.3 1951.6 7591.3 1790.4 7730.9 1709.8ZM8149.9 1790.4 8149.9 1951.6 8010.2 2032.2 7870.6 1951.6 7870.6 1790.4 8010.2 1709.8ZM5496.6 2032.2 5496.6 2193.5 5356.9 2274.1 5217.3 2193.5 5217.3 2032.2 5356.9 1951.6ZM5775.9 2032.2 5775.9 2193.5 5636.2 2274.1 5496.6 2193.5 5496.6 2032.2 5636.2 1951.6ZM6055.2 2032.2 6055.2 2193.5 5915.5 2274.1 5775.9 2193.5 5775.9 2032.2 5915.5 1951.6ZM6334.5 2032.2 6334.5 2193.5 6194.8 2274.1 6055.2 2193.5 6055.2 2032.2 6194.8 1951.6ZM6613.7 2032.2 6613.7 2193.5 6474.1 2274.1 6334.5 2193.5 6334.5 2032.2 6474.1 1951.6ZM8010.2 2032.2 8010.2 2193.5 7870.6 2274.1 7730.9 2193.5 7730.9 2032.2 7870.6 1951.6ZM5356.9 2274.1 5356.9 2435.4 5217.3 2516 5077.6 2435.4 5077.6 2274.1 5217.3 2193.5ZM5636.2 2274.1 5636.2 2435.4 5496.6 2516 5356.9 2435.4 5356.9 2274.1 5496.6 2193.5ZM5915.5 2274.1 5915.5 2435.4 5775.9 2516 5636.2 2435.4 5636.2 2274.1 5775.9 2193.5ZM6194.8 2274.1 6194.8 2435.4 6055.2 2516 5915.5 2435.4 5915.5 2274.1 6055.2 2193.5ZM6474.1 2274.1 6474.1 2435.4 6334.5 2516 6194.8 2435.4 6194.8 2274.1 6334.5 2193.5ZM6753.4 2274.1 6753.4 2435.4 6613.7 2516 6474.1 2435.4 6474.1 2274.1 6613.7 2193.5ZM7032.7 2274.1 7032.7 2435.4 6893 2516 6753.4 2435.4 6753.4 2274.1 6893 2193.5ZM3541.5 2516 3541.5 2677.2 3401.9 2757.9 3262.2 2677.2 3262.2 2516 3401.9 2435.4ZM5217.3 2516 5217.3 2677.2 5077.6 2757.9 4938 2677.2 4938 2516 5077.6 2435.4ZM5775.9 2516 5775.9 2677.2 5636.2 2757.9 5496.6 2677.2 5496.6 2516 5636.2 2435.4ZM6055.2 2516 6055.2 2677.2 5915.5 2757.9 5775.9 2677.2 5775.9 2516 5915.5 2435.4ZM6334.5 2516 6334.5 2677.2 6194.8 2757.9 6055.2 2677.2 6055.2 2516 6194.8 2435.4ZM6613.7 2516 6613.7 2677.2 6474.1 2757.9 6334.5 2677.2 6334.5 2516 6474.1 2435.4ZM6893 2516 6893 2677.2 6753.4 2757.9 6613.7 2677.2 6613.7 2516 6753.4 2435.4ZM7172.3 2516 7172.3 2677.2 7032.7 2757.9 6893 2677.2 6893 2516 7032.7 2435.4ZM5077.6 2757.9 5077.6 2919.1 4938 2999.8 4798.3 2919.1 4798.3 2757.9 4938 2677.2ZM5636.2 2757.9 5636.2 2919.1 5496.6 2999.8 5356.9 2919.1 5356.9 2757.9 5496.6 2677.2ZM5915.5 2757.9 5915.5 2919.1 5775.9 2999.8 5636.2 2919.1 5636.2 2757.9 5775.9 2677.2ZM6194.8 2757.9 6194.8 2919.1 6055.2 2999.8 5915.5 2919.1 5915.5 2757.9 6055.2 2677.2ZM6474.1 2757.9 6474.1 2919.1 6334.5 2999.8 6194.8 2919.1 6194.8 2757.9 6334.5 2677.2ZM6753.4 2757.9 6753.4 2919.1 6613.7 2999.8 6474.1 2919.1 6474.1 2757.9 6613.7 2677.2ZM7032.7 2757.9 7032.7 2919.1 6893 2999.8 6753.4 2919.1 6753.4 2757.9 6893 2677.2Z" fill="#b9a05e33" stroke="#3a3128" stroke-width="1"/><path d="M3820.8 97.3 3820.8 258.5 3681.2 339.1 3541.5 258.5 3541.5 97.2 3681.2 16.6ZM4100.1 97.3 4100.1 258.5 3960.5 339.1 3820.8 258.5 3820.8 97.2 3960.5 16.6ZM4379.4 97.3 4379.4 258.5 4239.8 339.1 4100.1 258.5 4100.1 97.2 4239.8 16.6ZM4658.7 97.3 4658.7 258.5 4519 339.1 4379.4 258.5 4379.4 97.2 4519 16.6ZM4938 97.3 4938 258.5 4798.3 339.1 4658.7 258.5 4658.7 97.2 4798.3 16.6ZM5217.3 97.3 5217.3 258.5 5077.6 339.1 4938 258.5 4938 97.2 5077.6 16.6ZM5496.6 97.3 5496.6 258.5 5356.9 339.1 5217.3 258.5 5217.3 97.2 5356.9 16.6ZM3401.9 339.1 3401.9 500.4 3262.2 581 3122.6 500.4 3122.6 339.1 3262.2 258.5ZM3681.2 339.1 3681.2 500.4 3541.5 581 3401.9 500.4 3401.9 339.1 3541.5 258.5ZM3960.5 339.1 3960.5 500.4 3820.8 581 3681.2 500.4 3681.2 339.1 3820.8 258.5ZM4239.8 339.1 4239.8 500.4 4100.1 581 3960.5 500.4 3960.5 339.1 4100.1 258.5ZM4519 339.1 4519 500.4 4379.4 581 4239.8 500.4 4239.8 339.1 4379.4 258.5ZM4798.3 339.1 4798.3 500.4 4658.7 581 4519 500.4 4519 339.1 4658.7 258.5ZM5356.9 339.1 5356.9 500.4 5217.3 581 5077.6 500.4 5077.6 339.1 5217.3 258.5ZM5915.5 339.1 5915.5 500.4 5775.9 581 5636.2 500.4 5636.2 339.1 5775.9 258.5ZM6474.1 339.1 6474.1 500.4 6334.5 581 6194.8 500.4 6194.8 339.1 6334.5 258.5ZM3262.2 581 3262.2 742.2 3122.6 822.9 2982.9 742.2 2982.9 581 3122.6 500.4ZM3541.5 581 3541.5 742.2 3401.9 822.9 3262.2 742.2 3262.2 581 3401.9 500.4ZM4100.1 581 4100.1 742.2 3960.5 822.9 3820.8 742.2 3820.8 581 3960.5 500.4ZM4379.4 581 4379.4 742.2 4239.8 822.9 4100.1 742.2 4100.1 581 4239.8 500.4ZM4658.7 581 4658.7 742.2 4519 822.9 4379.4 742.2 4379.4 581 4519 500.4ZM5775.9 581 5775.9 742.2 5636.2 822.9 5496.6 742.2 5496.6 581 5636.2 500.4ZM7730.9 581 7730.9 742.2 7591.3 822.9 7451.6 742.2 7451.6 581 7591.3 500.4ZM8010.2 581 8010.2 742.2 7870.6 822.9 7730.9 742.2 7730.9 581 7870.6 500.4ZM8289.5 581 8289.5 742.2 8149.9 822.9 8010.2 742.2 8010.2 581 8149.9 500.4ZM3122.6 822.9 3122.6 984.1 2982.9 1064.8 2843.3 984.1 2843.3 822.9 2982.9 742.2ZM3401.9 822.9 3401.9 984.1 3262.2 1064.8 3122.6 984.1 3122.6 822.9 3262.2 742.2ZM4239.8 822.9 4239.8 984.1 4100.1 1064.8 3960.5 984.1 3960.5 822.9 4100.1 742.2ZM4519 822.9 4519 984.1 4379.4 1064.8 4239.8 984.1 4239.8 822.9 4379.4 742.2ZM7591.3 822.9 7591.3 984.1 7451.6 1064.8 7312 984.1 7312 822.9 7451.6 742.2ZM7870.6 822.9 7870.6 984.1 7730.9 1064.8 7591.3 984.1 7591.3 822.9 7730.9 742.2ZM8149.9 822.9 8149.9 984.1 8010.2 1064.8 7870.6 984.1 7870.6 822.9 8010.2 742.2ZM2145.1 1064.8 2145.1 1226 2005.4 1306.6 1865.8 1226 1865.8 1064.8 2005.4 984.1ZM2424.3 1064.8 2424.3 1226 2284.7 1306.6 2145.1 1226 2145.1 1064.8 2284.7 984.1ZM2982.9 1064.8 2982.9 1226 2843.3 1306.6 2703.6 1226 2703.6 1064.8 2843.3 984.1ZM3262.2 1064.8 3262.2 1226 3122.6 1306.6 2982.9 1226 2982.9 1064.8 3122.6 984.1ZM7730.9 1064.8 7730.9 1226 7591.3 1306.6 7451.6 1226 7451.6 1064.8 7591.3 984.1ZM8010.2 1064.8 8010.2 1226 7870.6 1306.6 7730.9 1226 7730.9 1064.8 7870.6 984.1ZM8289.5 1064.8 8289.5 1226 8149.9 1306.6 8010.2 1226 8010.2 1064.8 8149.9 984.1ZM1726.1 1306.6 1726.1 1467.9 1586.5 1548.5 1446.8 1467.9 1446.8 1306.6 1586.5 1226ZM2005.4 1306.6 2005.4 1467.9 1865.8 1548.5 1726.1 1467.9 1726.1 1306.6 1865.8 1226ZM2284.7 1306.6 2284.7 1467.9 2145.1 1548.5 2005.4 1467.9 2005.4 1306.6 2145.1 1226ZM2843.3 1306.6 2843.3 1467.9 2703.6 1548.5 2564 1467.9 2564 1306.6 2703.6 1226ZM3122.6 1306.6 3122.6 1467.9 2982.9 1548.5 2843.3 1467.9 2843.3 1306.6 2982.9 1226ZM7870.6 1306.6 7870.6 1467.9 7730.9 1548.5 7591.3 1467.9 7591.3 1306.6 7730.9 1226ZM8149.9 1306.6 8149.9 1467.9 8010.2 1548.5 7870.6 1467.9 7870.6 1306.6 8010.2 1226ZM1586.5 1548.5 1586.5 1709.8 1446.8 1790.4 1307.2 1709.8 1307.2 1548.5 1446.8 1467.9ZM1865.8 1548.5 1865.8 1709.8 1726.1 1790.4 1586.5 1709.8 1586.5 1548.5 1726.1 1467.9ZM2145.1 1548.5 2145.1 1709.8 2005.4 1790.4 1865.8 1709.8 1865.8 1548.5 2005.4 1467.9ZM2424.3 1548.5 2424.3 1709.8 2284.7 1790.4 2145.1 1709.8 2145.1 1548.5 2284.7 1467.9ZM2703.6 1548.5 2703.6 1709.8 2564 1790.4 2424.3 1709.8 2424.3 1548.5 2564 1467.9ZM2982.9 1548.5 2982.9 1709.8 2843.3 1790.4 2703.6 1709.8 2703.6 1548.5 2843.3 1467.9ZM6613.7 1548.5 6613.7 1709.8 6474.1 1790.4 6334.5 1709.8 6334.5 1548.5 6474.1 1467.9ZM8010.2 1548.5 8010.2 1709.8 7870.6 1790.4 7730.9 1709.8 7730.9 1548.5 7870.6 1467.9ZM8289.5 1548.5 8289.5 1709.8 8149.9 1790.4 8010.2 1709.8 8010.2 1548.5 8149.9 1467.9ZM1446.8 1790.4 1446.8 1951.6 1307.2 2032.2 1167.5 1951.6 1167.5 1790.4 1307.2 1709.8ZM1726.1 1790.4 1726.1 1951.6 1586.5 2032.2 1446.8 1951.6 1446.8 1790.4 1586.5 1709.8ZM2005.4 1790.4 2005.4 1951.6 1865.8 2032.2 1726.1 1951.6 1726.1 1790.4 1865.8 1709.8ZM2284.7 1790.4 2284.7 1951.6 2145.1 2032.2 2005.4 1951.6 2005.4 1790.4 2145.1 1709.8ZM2564 1790.4 2564 1951.6 2424.3 2032.2 2284.7 1951.6 2284.7 1790.4 2424.3 1709.8ZM2843.3 1790.4 2843.3 1951.6 2703.6 2032.2 2564 1951.6 2564 1790.4 2703.6 1709.8ZM6753.4 1790.4 6753.4 1951.6 6613.7 2032.2 6474.1 1951.6 6474.1 1790.4 6613.7 1709.8ZM1307.2 2032.2 1307.2 2193.5 1167.5 2274.1 1027.9 2193.5 1027.9 2032.2 1167.5 1951.6ZM1586.5 2032.2 1586.5 2193.5 1446.8 2274.1 1307.2 2193.5 1307.2 2032.2 1446.8 1951.6ZM1865.8 2032.2 1865.8 2193.5 1726.1 2274.1 1586.5 2193.5 1586.5 2032.2 1726.1 1951.6ZM2145.1 2032.2 2145.1 2193.5 2005.4 2274.1 1865.8 2193.5 1865.8 2032.2 2005.4 1951.6ZM2424.3 2032.2 2424.3 2193.5 2284.7 2274.1 2145.1 2193.5 2145.1 2032.2 2284.7 1951.6ZM2703.6 2032.2 2703.6 2193.5 2564 2274.1 2424.3 2193.5 2424.3 2032.2 2564 1951.6ZM329.6 2274.1 329.6 2435.4 190 2516 50.4 2435.4 50.4 2274.1 190 2193.5ZM608.9 2274.1 608.9 2435.4 469.3 2516 329.6 2435.4 329.6 2274.1 469.3 2193.5ZM888.2 2274.1 888.2 2435.4 748.6 2516 608.9 2435.4 608.9 2274.1 748.6 2193.5ZM1167.5 2274.1 1167.5 2435.4 1027.9 2516 888.2 2435.4 888.2 2274.1 1027.9 2193.5ZM1446.8 2274.1 1446.8 2435.4 1307.2 2516 1167.5 2435.4 1167.5 2274.1 1307.2 2193.5ZM1726.1 2274.1 1726.1 2435.4 1586.5 2516 1446.8 2435.4 1446.8 2274.1 1586.5 2193.5ZM2005.4 2274.1 2005.4 2435.4 1865.8 2516 1726.1 2435.4 1726.1 2274.1 1865.8 2193.5ZM2284.7 2274.1 2284.7 2435.4 2145.1 2516 2005.4 2435.4 2005.4 2274.1 2145.1 2193.5ZM2564 2274.1 2564 2435.4 2424.3 2516 2284.7 2435.4 2284.7 2274.1 2424.3 2193.5ZM2843.3 2274.1 2843.3 2435.4 2703.6 2516 2564 2435.4 2564 2274.1 2703.6 2193.5ZM469.3 2516 469.3 2677.2 329.6 2757.9 190 2677.2 190 2516 329.6 2435.4ZM748.6 2516 748.6 2677.2 608.9 2757.9 469.3 2677.2 469.3 2516 608.9 2435.4ZM1027.9 2516 1027.9 2677.2 888.2 2757.9 748.6 2677.2 748.6 2516 888.2 2435.4ZM1307.2 2516 1307.2 2677.2 1167.5 2757.9 1027.9 2677.2 1027.9 2516 1167.5 2435.4ZM1586.5 2516 1586.5 2677.2 1446.8 2757.9 1307.2 2677.2 1307.2 2516 1446.8 2435.4ZM1865.8 2516 1865.8 2677.2 1726.1 2757.9 1586.5 2677.2 1586.5 2516 1726.1 2435.4ZM2145.1 2516 2145.1 2677.2 2005.4 2757.9 1865.8 2677.2 1865.8 2516 2005.4 2435.4ZM2424.3 2516 2424.3 2677.2 2284.7 2757.9 2145.1 2677.2 2145.1 2516 2284.7 2435.4ZM2703.6 2516 2703.6 2677.2 2564 2757.9 2424.3 2677.2 2424.3 2516 2564 2435.4ZM2982.9 2516 2982.9 2677.2 2843.3 2757.9 2703.6 2677.2 2703.6 2516 2843.3 2435.4ZM3820.8 2516 3820.8 2677.2 3681.2 2757.9 3541.5 2677.2 3541.5 2516 3681.2 2435.4ZM5496.6 2516 5496.6 2677.2 5356.9 2757.9 5217.3 2677.2 5217.3 2516 5356.9 2435.4ZM329.6 2757.9 329.6 2919.1 190 2999.8 50.4 2919.1 50.4 2757.9 190 2677.2ZM608.9 2757.9 608.9 2919.1 469.3 2999.8 329.6 2919.1 329.6 2757.9 469.3 2677.2ZM888.2 2757.9 888.2 2919.1 748.6 2999.8 608.9 2919.1 608.9 2757.9 748.6 2677.2ZM1167.5 2757.9 1167.5 2919.1 1027.9 2999.8 888.2 2919.1 888.2 2757.9 1027.9 2677.2ZM1446.8 2757.9 1446.8 2919.1 1307.2 2999.8 1167.5 2919.1 1167.5 2757.9 1307.2 2677.2ZM1726.1 2757.9 1726.1 2919.1 1586.5 2999.8 1446.8 2919.1 1446.8 2757.9 1586.5 2677.2ZM2005.4 2757.9 2005.4 2919.1 1865.8 2999.8 1726.1 2919.1 1726.1 2757.9 1865.8 2677.2ZM2284.7 2757.9 2284.7 2919.1 2145.1 2999.8 2005.4 2919.1 2005.4 2757.9 2145.1 2677.2ZM2564 2757.9 2564 2919.1 2424.3 2999.8 2284.7 2919.1 2284.7 2757.9 2424.3 2677.2ZM2843.3 2757.9 2843.3 2919.1 2703.6 2999.8 2564 2919.1 2564 2757.9 2703.6 2677.2ZM3122.6 2757.9 3122.6 2919.1 2982.9 2999.8 2843.3 2919.1 2843.3 2757.9 2982.9 2677.2ZM3401.9 2757.9 3401.9 2919.1 3262.2 2999.8 3122.6 2919.1 3122.6 2757.9 3262.2 2677.2ZM3681.2 2757.9 3681.2 2919.1 3541.5 2999.8 3401.9 2919.1 3401.9 2757.9 3541.5 2677.2ZM3960.5 2757.9 3960.5 2919.1 3820.8 2999.8 3681.2 2919.1 3681.2 2757.9 3820.8 2677.2ZM5356.9 2757.9 5356.9 2919.1 5217.3 2999.8 5077.6 2919.1 5077.6 2757.9 5217.3 2677.2Z" fill="#cfc98a33" stroke="#3a3128" stroke-width="1"/><path d="M5775.9 97.3 5775.9 258.5 5636.2 339.1 5496.6 258.5 5496.6 97.2 5636.2 16.6ZM6055.2 97.3 6055.2 258.5 5915.5 339.1 5775.9 258.5 5775.9 97.2 5915.5 16.6ZM6334.5 97.3 6334.5 258.5 6194.8 339.1 6055.2 258.5 6055.2 97.2 6194.8 16.6ZM6613.7 97.3 6613.7 258.5 6474.1 339.1 6334.5 258.5 6334.5 97.2 6474.1 16.6ZM7591.3 339.1 7591.3 500.4 7451.6 581 7312 500.4 7312 339.1 7451.6 258.5ZM7870.6 339.1 7870.6 500.4 7730.9 581 7591.3 500.4 7591.3 339.1 7730.9 258.5Z" fill="#ffffff08" stroke="#7a6a4a" stroke-width="1"/><path d="M5077.6 339.1 5077.6 500.4 4938 581 4798.3 500.4 4798.3 339.1 4938 258.5ZM4938 581 4938 742.2 4798.3 822.9 4658.7 742.2 4658.7 581 4798.3 500.4ZM5217.3 581 5217.3 742.2 5077.6 822.9 4938 742.2 4938 581 5077.6 500.4ZM4798.3 822.9 4798.3 984.1 4658.7 1064.8 4519 984.1 4519 822.9 4658.7 742.2ZM4379.4 1064.8 4379.4 1226 4239.8 1306.6 4100.1 1226 4100.1 1064.8 4239.8 984.1ZM4658.7 1064.8 4658.7 1226 4519 1306.6 4379.4 1226 4379.4 1064.8 4519 984.1ZM4938 1064.8 4938 1226 4798.3 1306.6 4658.7 1226 4658.7 1064.8 4798.3 984.1ZM5217.3 1064.8 5217.3 1226 5077.6 1306.6 4938 1226 4938 1064.8 5077.6 984.1ZM329.6 1306.6 329.6 1467.9 190 1548.5 50.4 1467.9 50.4 1306.6 190 1226ZM608.9 1306.6 608.9 1467.9 469.3 1548.5 329.6 1467.9 329.6 1306.6 469.3 1226ZM888.2 1306.6 888.2 1467.9 748.6 1548.5 608.9 1467.9 608.9 1306.6 748.6 1226ZM1167.5 1306.6 1167.5 1467.9 1027.9 1548.5 888.2 1467.9 888.2 1306.6 1027.9 1226ZM1446.8 1306.6 1446.8 1467.9 1307.2 1548.5 1167.5 1467.9 1167.5 1306.6 1307.2 1226ZM4239.8 1306.6 4239.8 1467.9 4100.1 1548.5 3960.5 1467.9 3960.5 1306.6 4100.1 1226ZM4519 1306.6 4519 1467.9 4379.4 1548.5 4239.8 1467.9 4239.8 1306.6 4379.4 1226ZM4798.3 1306.6 4798.3 1467.9 4658.7 1548.5 4519 1467.9 4519 1306.6 4658.7 1226ZM5077.6 1306.6 5077.6 1467.9 4938 1548.5 4798.3 1467.9 4798.3 1306.6 4938 1226ZM5356.9 1306.6 5356.9 1467.9 5217.3 1548.5 5077.6 1467.9 5077.6 1306.6 5217.3 1226ZM469.3 1548.5 469.3 1709.8 329.6 1790.4 190 1709.8 190 1548.5 329.6 1467.9ZM748.6 1548.5 748.6 1709.8 608.9 1790.4 469.3 1709.8 469.3 1548.5 608.9 1467.9ZM1027.9 1548.5 1027.9 1709.8 888.2 1790.4 748.6 1709.8 748.6 1548.5 888.2 1467.9ZM1307.2 1548.5 1307.2 1709.8 1167.5 1790.4 1027.9 1709.8 1027.9 1548.5 1167.5 1467.9ZM4379.4 1548.5 4379.4 1709.8 4239.8 1790.4 4100.1 1709.8 4100.1 1548.5 4239.8 1467.9ZM4658.7 1548.5 4658.7 1709.8 4519 1790.4 4379.4 1709.8 4379.4 1548.5 4519 1467.9ZM4938 1548.5 4938 1709.8 4798.3 1790.4 4658.7 1709.8 4658.7 1548.5 4798.3 1467.9ZM5217.3 1548.5 5217.3 1709.8 5077.6 1790.4 4938 1709.8 4938 1548.5 5077.6 1467.9ZM329.6 1790.4 329.6 1951.6 190 2032.2 50.4 1951.6 50.4 1790.4 190 1709.8ZM608.9 1790.4 608.9 1951.6 469.3 2032.2 329.6 1951.6 329.6 1790.4 469.3 1709.8ZM888.2 1790.4 888.2 1951.6 748.6 2032.2 608.9 1951.6 608.9 1790.4 748.6 1709.8ZM1167.5 1790.4 1167.5 1951.6 1027.9 2032.2 888.2 1951.6 888.2 1790.4 1027.9 1709.8ZM4239.8 1790.4 4239.8 1951.6 4100.1 2032.2 3960.5 1951.6 3960.5 1790.4 4100.1 1709.8ZM4519 1790.4 4519 1951.6 4379.4 2032.2 4239.8 1951.6 4239.8 1790.4 4379.4 1709.8ZM4798.3 1790.4 4798.3 1951.6 4658.7 2032.2 4519 1951.6 4519 1790.4 4658.7 1709.8ZM5077.6 1790.4 5077.6 1951.6 4938 2032.2 4798.3 1951.6 4798.3 1790.4 4938 1709.8ZM5356.9 1790.4 5356.9 1951.6 5217.3 2032.2 5077.6 1951.6 5077.6 1790.4 5217.3 1709.8ZM469.3 2032.2 469.3 2193.5 329.6 2274.1 190 2193.5 190 2032.2 329.6 1951.6ZM748.6 2032.2 748.6 2193.5 608.9 2274.1 469.3 2193.5 469.3 2032.2 608.9 1951.6ZM1027.9 2032.2 1027.9 2193.5 888.2 2274.1 748.6 2193.5 748.6 2032.2 888.2 1951.6ZM4100.1 2032.2 4100.1 2193.5 3960.5 2274.1 3820.8 2193.5 3820.8 2032.2 3960.5 1951.6ZM4379.4 2032.2 4379.4 2193.5 4239.8 2274.1 4100.1 2193.5 4100.1 2032.2 4239.8 1951.6ZM4658.7 2032.2 4658.7 2193.5 4519 2274.1 4379.4 2193.5 4379.4 2032.2 4519 1951.6ZM4938 2032.2 4938 2193.5 4798.3 2274.1 4658.7 2193.5 4658.7 2032.2 4798.3 1951.6ZM4239.8 2274.1 4239.8 2435.4 4100.1 2516 3960.5 2435.4 3960.5 2274.1 4100.1 2193.5ZM4519 2274.1 4519 2435.4 4379.4 2516 4239.8 2435.4 4239.8 2274.1 4379.4 2193.5ZM4798.3 2274.1 4798.3 2435.4 4658.7 2516 4519 2435.4 4519 2274.1 4658.7 2193.5ZM5077.6 2274.1 5077.6 2435.4 4938 2516 4798.3 2435.4 4798.3 2274.1 4938 2193.5ZM4100.1 2516 4100.1 2677.2 3960.5 2757.9 3820.8 2677.2 3820.8 2516 3960.5 2435.4ZM4379.4 2516 4379.4 2677.2 4239.8 2757.9 4100.1 2677.2 4100.1 2516 4239.8 2435.4ZM4658.7 2516 4658.7 2677.2 4519 2757.9 4379.4 2677.2 4379.4 2516 4519 2435.4ZM4938 2516 4938 2677.2 4798.3 2757.9 4658.7 2677.2 4658.7 2516 4798.3 2435.4ZM4239.8 2757.9 4239.8 2919.1 4100.1 2999.8 3960.5 2919.1 3960.5 2757.9 4100.1 2677.2ZM4519 2757.9 4519 2919.1 4379.4 2999.8 4239.8 2919.1 4239.8 2757.9 4379.4 2677.2ZM4798.3 2757.9 4798.3 2919.1 4658.7 2999.8 4519 2919.1 4519 2757.9 4658.7 2677.2Z" fill="#547a4533" stroke="#3a3128" stroke-width="1"/><path d="M5636.2 339.1 5636.2 500.4 5496.6 581 5356.9 500.4 5356.9 339.1 5496.6 258.5ZM6055.2 581 6055.2 742.2 5915.5 822.9 5775.9 742.2 5775.9 581 5915.5 500.4Z" fill="#cfc98a33" stroke="#6f9a4e" stroke-width="1"/><path d="M6194.8 339.1 6194.8 500.4 6055.2 581 5915.5 500.4 5915.5 339.1 6055.2 258.5Z" fill="none" stroke="#3a3128" stroke-width="1"/><path d="M6753.4 339.1 6753.4 500.4 6613.7 581 6474.1 500.4 6474.1 339.1 6613.7 258.5ZM7312 339.1 7312 500.4 7172.3 581 7032.7 500.4 7032.7 339.1 7172.3 258.5Z" fill="#cfc98a33" stroke="#7a6a4a" stroke-width="1"/><path d="M7032.7 339.1 7032.7 500.4 6893 581 6753.4 500.4 6753.4 339.1 6893 258.5Z" fill="#b9a05e33" stroke="#7a6a4a" stroke-width="1"/><path d="M469.3 581 469.3 742.2 329.6 822.9 190 742.2 190 581 329.6 500.4ZM748.6 581 748.6 742.2 608.9 822.9 469.3 742.2 469.3 581 608.9 500.4ZM1027.9 581 1027.9 742.2 888.2 822.9 748.6 742.2 748.6 581 888.2 500.4ZM1307.2 581 1307.2 742.2 1167.5 822.9 1027.9 742.2 1027.9 581 1167.5 500.4ZM7172.3 581 7172.3 742.2 7032.7 822.9 6893 742.2 6893 581 7032.7 500.4ZM329.6 822.9 329.6 984.1 190 1064.8 50.4 984.1 50.4 822.9 190 742.2ZM608.9 822.9 608.9 984.1 469.3 1064.8 329.6 984.1 329.6 822.9 469.3 742.2ZM888.2 822.9 888.2 984.1 748.6 1064.8 608.9 984.1 608.9 822.9 748.6 742.2ZM1167.5 822.9 1167.5 984.1 1027.9 1064.8 888.2 984.1 888.2 822.9 1027.9 742.2ZM6753.4 822.9 6753.4 984.1 6613.7 1064.8 6474.1 984.1 6474.1 822.9 6613.7 742.2ZM7032.7 822.9 7032.7 984.1 6893 1064.8 6753.4 984.1 6753.4 822.9 6893 742.2ZM469.3 1064.8 469.3 1226 329.6 1306.6 190 1226 190 1064.8 329.6 984.1ZM748.6 1064.8 748.6 1226 608.9 1306.6 469.3 1226 469.3 1064.8 608.9 984.1ZM1027.9 1064.8 1027.9 1226 888.2 1306.6 748.6 1226 748.6 1064.8 888.2 984.1ZM1307.2 1064.8 1307.2 1226 1167.5 1306.6 1027.9 1226 1027.9 1064.8 1167.5 984.1ZM6893 1064.8 6893 1226 6753.4 1306.6 6613.7 1226 6613.7 1064.8 6753.4 984.1ZM7172.3 1064.8 7172.3 1226 7032.7 1306.6 6893 1226 6893 1064.8 7032.7 984.1ZM6753.4 1306.6 6753.4 1467.9 6613.7 1548.5 6474.1 1467.9 6474.1 1306.6 6613.7 1226ZM7032.7 1306.6 7032.7 1467.9 6893 1548.5 6753.4 1467.9 6753.4 1306.6 6893 1226ZM7312 1306.6 7312 1467.9 7172.3 1548.5 7032.7 1467.9 7032.7 1306.6 7172.3 1226ZM7172.3 1548.5 7172.3 1709.8 7032.7 1790.4 6893 1709.8 6893 1548.5 7032.7 1467.9ZM7312 1790.4 7312 1951.6 7172.3 2032.2 7032.7 1951.6 7032.7 1790.4 7172.3 1709.8ZM7172.3 2032.2 7172.3 2193.5 7032.7 2274.1 6893 2193.5 6893 2032.2 7032.7 1951.6ZM7451.6 2032.2 7451.6 2193.5 7312 2274.1 7172.3 2193.5 7172.3 2032.2 7312 1951.6ZM7730.9 2032.2 7730.9 2193.5 7591.3 2274.1 7451.6 2193.5 7451.6 2032.2 7591.3 1951.6ZM7312 2274.1 7312 2435.4 7172.3 2516 7032.7 2435.4 7032.7 2274.1 7172.3 2193.5ZM7591.3 2274.1 7591.3 2435.4 7451.6 2516 7312 2435.4 7312 2274.1 7451.6 2193.5ZM7870.6 2274.1 7870.6 2435.4 7730.9 2516 7591.3 2435.4 7591.3 2274.1 7730.9 2193.5ZM8149.9 2274.1 8149.9 2435.4 8010.2 2516 7870.6 2435.4 7870.6 2274.1 8010.2 2193.5ZM7451.6 2516 7451.6 2677.2 7312 2757.9 7172.3 2677.2 7172.3 2516 7312 2435.4ZM7730.9 2516 7730.9 2677.2 7591.3 2757.9 7451.6 2677.2 7451.6 2516 7591.3 2435.4ZM8010.2 2516 8010.2 2677.2 7870.6 2757.9 7730.9 2677.2 7730.9 2516 7870.6 2435.4ZM8289.5 2516 8289.5 2677.2 8149.9 2757.9 8010.2 2677.2 8010.2 2516 8149.9 2435.4ZM7312 2757.9 7312 2919.1 7172.3 2999.8 7032.7 2919.1 7032.7 2757.9 7172.3 2677.2ZM7591.3 2757.9 7591.3 2919.1 7451.6 2999.8 7312 2919.1 7312 2757.9 7451.6 2677.2ZM7870.6 2757.9 7870.6 2919.1 7730.9 2999.8 7591.3 2919.1 7591.3 2757.9 7730.9 2677.2ZM8149.9 2757.9 8149.9 2919.1 8010.2 2999.8 7870.6 2919.1 7870.6 2757.9 8010.2 2677.2Z" fill="#8b7d6f33" stroke="#3a3128" stroke-width="1"/><path d="M3820.8 581 3820.8 742.2 3681.2 822.9 3541.5 742.2 3541.5 581 3681.2 500.4ZM3681.2 822.9 3681.2 984.1 3541.5 1064.8 3401.9 984.1 3401.9 822.9 3541.5 742.2ZM3960.5 822.9 3960.5 984.1 3820.8 1064.8 3681.2 984.1 3681.2 822.9 3820.8 742.2ZM3541.5 1064.8 3541.5 1226 3401.9 1306.6 3262.2 1226 3262.2 1064.8 3401.9 984.1ZM4100.1 1064.8 4100.1 1226 3960.5 1306.6 3820.8 1226 3820.8 1064.8 3960.5 984.1ZM3960.5 1306.6 3960.5 1467.9 3820.8 1548.5 3681.2 1467.9 3681.2 1306.6 3820.8 1226ZM3262.2 1548.5 3262.2 1709.8 3122.6 1790.4 2982.9 1709.8 2982.9 1548.5 3122.6 1467.9ZM3541.5 1548.5 3541.5 1709.8 3401.9 1790.4 3262.2 1709.8 3262.2 1548.5 3401.9 1467.9ZM3820.8 1548.5 3820.8 1709.8 3681.2 1790.4 3541.5 1709.8 3541.5 1548.5 3681.2 1467.9ZM4100.1 1548.5 4100.1 1709.8 3960.5 1790.4 3820.8 1709.8 3820.8 1548.5 3960.5 1467.9ZM3122.6 1790.4 3122.6 1951.6 2982.9 2032.2 2843.3 1951.6 2843.3 1790.4 2982.9 1709.8ZM3401.9 1790.4 3401.9 1951.6 3262.2 2032.2 3122.6 1951.6 3122.6 1790.4 3262.2 1709.8ZM3681.2 1790.4 3681.2 1951.6 3541.5 2032.2 3401.9 1951.6 3401.9 1790.4 3541.5 1709.8ZM3960.5 1790.4 3960.5 1951.6 3820.8 2032.2 3681.2 1951.6 3681.2 1790.4 3820.8 1709.8ZM2982.9 2032.2 2982.9 2193.5 2843.3 2274.1 2703.6 2193.5 2703.6 2032.2 2843.3 1951.6ZM3262.2 2032.2 3262.2 2193.5 3122.6 2274.1 2982.9 2193.5 2982.9 2032.2 3122.6 1951.6ZM3541.5 2032.2 3541.5 2193.5 3401.9 2274.1 3262.2 2193.5 3262.2 2032.2 3401.9 1951.6ZM3820.8 2032.2 3820.8 2193.5 3681.2 2274.1 3541.5 2193.5 3541.5 2032.2 3681.2 1951.6ZM3122.6 2274.1 3122.6 2435.4 2982.9 2516 2843.3 2435.4 2843.3 2274.1 2982.9 2193.5ZM3401.9 2274.1 3401.9 2435.4 3262.2 2516 3122.6 2435.4 3122.6 2274.1 3262.2 2193.5ZM3681.2 2274.1 3681.2 2435.4 3541.5 2516 3401.9 2435.4 3401.9 2274.1 3541.5 2193.5ZM3960.5 2274.1 3960.5 2435.4 3820.8 2516 3681.2 2435.4 3681.2 2274.1 3820.8 2193.5ZM3262.2 2516 3262.2 2677.2 3122.6 2757.9 2982.9 2677.2 2982.9 2516 3122.6 2435.4Z" fill="#6d7a5233" stroke="#3a3128" stroke-width="1"/><path d="M5496.6 581 5496.6 742.2 5356.9 822.9 5217.3 742.2 5217.3 581 5356.9 500.4ZM5077.6 822.9 5077.6 984.1 4938 1064.8 4798.3 984.1 4798.3 822.9 4938 742.2Z" fill="#547a4533" stroke="#6f9a4e" stroke-width="1"/><path d="M5636.2 822.9 5636.2 984.1 5496.6 1064.8 5356.9 984.1 5356.9 822.9 5496.6 742.2ZM5915.5 822.9 5915.5 984.1 5775.9 1064.8 5636.2 984.1 5636.2 822.9 5775.9 742.2ZM5775.9 1064.8 5775.9 1226 5636.2 1306.6 5496.6 1226 5496.6 1064.8 5636.2 984.1ZM6055.2 1064.8 6055.2 1226 5915.5 1306.6 5775.9 1226 5775.9 1064.8 5915.5 984.1Z" fill="#b9a05e33" stroke="#6f9a4e" stroke-width="1"/><path d="M3820.8 1064.8 3820.8 1226 3681.2 1306.6 3541.5 1226 3541.5 1064.8 3681.2 984.1ZM3401.9 1306.6 3401.9 1467.9 3262.2 1548.5 3122.6 1467.9 3122.6 1306.6 3262.2 1226ZM3681.2 1306.6 3681.2 1467.9 3541.5 1548.5 3401.9 1467.9 3401.9 1306.6 3541.5 1226ZM6893 1548.5 6893 1709.8 6753.4 1790.4 6613.7 1709.8 6613.7 1548.5 6753.4 1467.9ZM7032.7 1790.4 7032.7 1951.6 6893 2032.2 6753.4 1951.6 6753.4 1790.4 6893 1709.8ZM5217.3 2032.2 5217.3 2193.5 5077.6 2274.1 4938 2193.5 4938 2032.2 5077.6 1951.6Z" fill="#3f7fa633" stroke="#3a3128" stroke-width="1"/><path d="M6893 2032.2 6893 2193.5 6753.4 2274.1 6613.7 2193.5 6613.7 2032.2 6753.4 1951.6Z" fill="#4a8fb533" stroke="#3a3128" stroke-width="1"/><path d="M5356.9 822.9 5356.9 984.1 5217.3 1064.8 5077.6 984.1 5077.6 822.9 5217.3 742.2Z" fill="#547a4566" stroke="#d7b263" stroke-width="2.6"/><path d="M5496.6 1064.8 5496.6 1226 5356.9 1306.6 5217.3 1226 5217.3 1064.8 5356.9 984.1ZM5915.5 1306.6 5915.5 1467.9 5775.9 1548.5 5636.2 1467.9 5636.2 1306.6 5775.9 1226Z" fill="#b9a05e66" stroke="#d7b263" stroke-width="2.6"/><path d="M5636.2 1306.6 5636.2 1467.9 5496.6 1548.5 5356.9 1467.9 5356.9 1306.6 5496.6 1226ZM5496.6 1548.5 5496.6 1709.8 5356.9 1790.4 5217.3 1709.8 5217.3 1548.5 5356.9 1467.9Z" fill="#cfc98a66" stroke="#d7b263" stroke-width="2.6"/><path d="M469.3 97.3 469.3 258.5 329.6 339.1 190 258.5 190 97.2 329.6 16.6ZM748.6 97.3 748.6 258.5 608.9 339.1 469.3 258.5 469.3 97.2 608.9 16.6ZM1027.9 97.3 1027.9 258.5 888.2 339.1 748.6 258.5 748.6 97.2 888.2 16.6ZM1307.2 97.3 1307.2 258.5 1167.5 339.1 1027.9 258.5 1027.9 97.2 1167.5 16.6ZM1586.5 97.3 1586.5 258.5 1446.8 339.1 1307.2 258.5 1307.2 97.2 1446.8 16.6ZM1865.8 97.3 1865.8 258.5 1726.1 339.1 1586.5 258.5 1586.5 97.2 1726.1 16.6ZM2145.1 97.3 2145.1 258.5 2005.4 339.1 1865.8 258.5 1865.8 97.2 2005.4 16.6ZM2424.3 97.3 2424.3 258.5 2284.7 339.1 2145.1 258.5 2145.1 97.2 2284.7 16.6ZM2703.6 97.3 2703.6 258.5 2564 339.1 2424.3 258.5 2424.3 97.2 2564 16.6ZM2982.9 97.3 2982.9 258.5 2843.3 339.1 2703.6 258.5 2703.6 97.2 2843.3 16.6ZM3262.2 97.3 3262.2 258.5 3122.6 339.1 2982.9 258.5 2982.9 97.2 3122.6 16.6ZM3541.5 97.3 3541.5 258.5 3401.9 339.1 3262.2 258.5 3262.2 97.2 3401.9 16.6ZM3820.8 97.3 3820.8 258.5 3681.2 339.1 3541.5 258.5 3541.5 97.2 3681.2 16.6ZM4100.1 97.3 4100.1 258.5 3960.5 339.1 3820.8 258.5 3820.8 97.2 3960.5 16.6ZM4379.4 97.3 4379.4 258.5 4239.8 339.1 4100.1 258.5 4100.1 97.2 4239.8 16.6ZM4658.7 97.3 4658.7 258.5 4519 339.1 4379.4 258.5 4379.4 97.2 4519 16.6ZM4938 97.3 4938 258.5 4798.3 339.1 4658.7 258.5 4658.7 97.2 4798.3 16.6ZM5217.3 97.3 5217.3 258.5 5077.6 339.1 4938 258.5 4938 97.2 5077.6 16.6ZM5496.6 97.3 5496.6 258.5 5356.9 339.1 5217.3 258.5 5217.3 97.2 5356.9 16.6ZM6893 97.3 6893 258.5 6753.4 339.1 6613.7 258.5 6613.7 97.2 6753.4 16.6ZM7172.3 97.3 7172.3 258.5 7032.7 339.1 6893 258.5 6893 97.2 7032.7 16.6ZM7451.6 97.3 7451.6 258.5 7312 339.1 7172.3 258.5 7172.3 97.2 7312 16.6ZM7730.9 97.3 7730.9 258.5 7591.3 339.1 7451.6 258.5 7451.6 97.2 7591.3 16.6ZM8010.2 97.3 8010.2 258.5 7870.6 339.1 7730.9 258.5 7730.9 97.2 7870.6 16.6ZM8289.5 97.3 8289.5 258.5 8149.9 339.1 8010.2 258.5 8010.2 97.2 8149.9 16.6ZM329.6 339.1 329.6 500.4 190 581 50.4 500.4 50.4 339.1 190 258.5ZM608.9 339.1 608.9 500.4 469.3 581 329.6 500.4 329.6 339.1 469.3 258.5ZM888.2 339.1 888.2 500.4 748.6 581 608.9 500.4 608.9 339.1 748.6 258.5ZM1167.5 339.1 1167.5 500.4 1027.9 581 888.2 500.4 888.2 339.1 1027.9 258.5ZM1446.8 339.1 1446.8 500.4 1307.2 581 1167.5 500.4 1167.5 339.1 1307.2 258.5ZM1726.1 339.1 1726.1 500.4 1586.5 581 1446.8 500.4 1446.8 339.1 1586.5 258.5ZM2005.4 339.1 2005.4 500.4 1865.8 581 1726.1 500.4 1726.1 339.1 1865.8 258.5ZM2284.7 339.1 2284.7 500.4 2145.1 581 2005.4 500.4 2005.4 339.1 2145.1 258.5ZM2564 339.1 2564 500.4 2424.3 581 2284.7 500.4 2284.7 339.1 2424.3 258.5ZM2843.3 339.1 2843.3 500.4 2703.6 581 2564 500.4 2564 339.1 2703.6 258.5ZM3122.6 339.1 3122.6 500.4 2982.9 581 2843.3 500.4 2843.3 339.1 2982.9 258.5ZM3401.9 339.1 3401.9 500.4 3262.2 581 3122.6 500.4 3122.6 339.1 3262.2 258.5ZM3681.2 339.1 3681.2 500.4 3541.5 581 3401.9 500.4 3401.9 339.1 3541.5 258.5ZM3960.5 339.1 3960.5 500.4 3820.8 581 3681.2 500.4 3681.2 339.1 3820.8 258.5ZM4239.8 339.1 4239.8 500.4 4100.1 581 3960.5 500.4 3960.5 339.1 4100.1 258.5ZM4519 339.1 4519 500.4 4379.4 581 4239.8 500.4 4239.8 339.1 4379.4 258.5ZM4798.3 339.1 4798.3 500.4 4658.7 581 4519 500.4 4519 339.1 4658.7 258.5ZM5077.6 339.1 5077.6 500.4 4938 581 4798.3 500.4 4798.3 339.1 4938 258.5ZM5356.9 339.1 5356.9 500.4 5217.3 581 5077.6 500.4 5077.6 339.1 5217.3 258.5ZM5915.5 339.1 5915.5 500.4 5775.9 581 5636.2 500.4 5636.2 339.1 5775.9 258.5ZM6194.8 339.1 6194.8 500.4 6055.2 581 5915.5 500.4 5915.5 339.1 6055.2 258.5ZM6474.1 339.1 6474.1 500.4 6334.5 581 6194.8 500.4 6194.8 339.1 6334.5 258.5ZM8149.9 339.1 8149.9 500.4 8010.2 581 7870.6 500.4 7870.6 339.1 8010.2 258.5ZM469.3 581 469.3 742.2 329.6 822.9 190 742.2 190 581 329.6 500.4ZM748.6 581 748.6 742.2 608.9 822.9 469.3 742.2 469.3 581 608.9 500.4ZM1027.9 581 1027.9 742.2 888.2 822.9 748.6 742.2 748.6 581 888.2 500.4ZM1307.2 581 1307.2 742.2 1167.5 822.9 1027.9 742.2 1027.9 581 1167.5 500.4ZM1586.5 581 1586.5 742.2 1446.8 822.9 1307.2 742.2 1307.2 581 1446.8 500.4ZM1865.8 581 1865.8 742.2 1726.1 822.9 1586.5 742.2 1586.5 581 1726.1 500.4ZM2145.1 581 2145.1 742.2 2005.4 822.9 1865.8 742.2 1865.8 581 2005.4 500.4ZM2424.3 581 2424.3 742.2 2284.7 822.9 2145.1 742.2 2145.1 581 2284.7 500.4ZM2703.6 581 2703.6 742.2 2564 822.9 2424.3 742.2 2424.3 581 2564 500.4ZM2982.9 581 2982.9 742.2 2843.3 822.9 2703.6 742.2 2703.6 581 2843.3 500.4ZM3262.2 581 3262.2 742.2 3122.6 822.9 2982.9 742.2 2982.9 581 3122.6 500.4ZM3541.5 581 3541.5 742.2 3401.9 822.9 3262.2 742.2 3262.2 581 3401.9 500.4ZM3820.8 581 3820.8 742.2 3681.2 822.9 3541.5 742.2 3541.5 581 3681.2 500.4ZM4100.1 581 4100.1 742.2 3960.5 822.9 3820.8 742.2 3820.8 581 3960.5 500.4ZM4379.4 581 4379.4 742.2 4239.8 822.9 4100.1 742.2 4100.1 581 4239.8 500.4ZM4658.7 581 4658.7 742.2 4519 822.9 4379.4 742.2 4379.4 581 4519 500.4ZM4938 581 4938 742.2 4798.3 822.9 4658.7 742.2 4658.7 581 4798.3 500.4ZM5217.3 581 5217.3 742.2 5077.6 822.9 4938 742.2 4938 581 5077.6 500.4ZM5775.9 581 5775.9 742.2 5636.2 822.9 5496.6 742.2 5496.6 581 5636.2 500.4ZM6334.5 581 6334.5 742.2 6194.8 822.9 6055.2 742.2 6055.2 581 6194.8 500.4ZM6613.7 581 6613.7 742.2 6474.1 822.9 6334.5 742.2 6334.5 581 6474.1 500.4ZM6893 581 6893 742.2 6753.4 822.9 6613.7 742.2 6613.7 581 6753.4 500.4ZM7172.3 581 7172.3 742.2 7032.7 822.9 6893 742.2 6893 581 7032.7 500.4ZM7451.6 581 7451.6 742.2 7312 822.9 7172.3 742.2 7172.3 581 7312 500.4ZM7730.9 581 7730.9 742.2 7591.3 822.9 7451.6 742.2 7451.6 581 7591.3 500.4ZM8010.2 581 8010.2 742.2 7870.6 822.9 7730.9 742.2 7730.9 581 7870.6 500.4ZM8289.5 581 8289.5 742.2 8149.9 822.9 8010.2 742.2 8010.2 581 8149.9 500.4ZM329.6 822.9 329.6 984.1 190 1064.8 50.4 984.1 50.4 822.9 190 742.2ZM608.9 822.9 608.9 984.1 469.3 1064.8 329.6 984.1 329.6 822.9 469.3 742.2ZM888.2 822.9 888.2 984.1 748.6 1064.8 608.9 984.1 608.9 822.9 748.6 742.2ZM1167.5 822.9 1167.5 984.1 1027.9 1064.8 888.2 984.1 888.2 822.9 1027.9 742.2ZM1446.8 822.9 1446.8 984.1 1307.2 1064.8 1167.5 984.1 1167.5 822.9 1307.2 742.2ZM1726.1 822.9 1726.1 984.1 1586.5 1064.8 1446.8 984.1 1446.8 822.9 1586.5 742.2ZM2005.4 822.9 2005.4 984.1 1865.8 1064.8 1726.1 984.1 1726.1 822.9 1865.8 742.2ZM2284.7 822.9 2284.7 984.1 2145.1 1064.8 2005.4 984.1 2005.4 822.9 2145.1 742.2ZM2564 822.9 2564 984.1 2424.3 1064.8 2284.7 984.1 2284.7 822.9 2424.3 742.2ZM2843.3 822.9 2843.3 984.1 2703.6 1064.8 2564 984.1 2564 822.9 2703.6 742.2ZM3122.6 822.9 3122.6 984.1 2982.9 1064.8 2843.3 984.1 2843.3 822.9 2982.9 742.2ZM3401.9 822.9 3401.9 984.1 3262.2 1064.8 3122.6 984.1 3122.6 822.9 3262.2 742.2ZM3681.2 822.9 3681.2 984.1 3541.5 1064.8 3401.9 984.1 3401.9 822.9 3541.5 742.2ZM3960.5 822.9 3960.5 984.1 3820.8 1064.8 3681.2 984.1 3681.2 822.9 3820.8 742.2ZM4239.8 822.9 4239.8 984.1 4100.1 1064.8 3960.5 984.1 3960.5 822.9 4100.1 742.2ZM4519 822.9 4519 984.1 4379.4 1064.8 4239.8 984.1 4239.8 822.9 4379.4 742.2ZM4798.3 822.9 4798.3 984.1 4658.7 1064.8 4519 984.1 4519 822.9 4658.7 742.2ZM6194.8 822.9 6194.8 984.1 6055.2 1064.8 5915.5 984.1 5915.5 822.9 6055.2 742.2ZM6474.1 822.9 6474.1 984.1 6334.5 1064.8 6194.8 984.1 6194.8 822.9 6334.5 742.2ZM6753.4 822.9 6753.4 984.1 6613.7 1064.8 6474.1 984.1 6474.1 822.9 6613.7 742.2ZM7032.7 822.9 7032.7 984.1 6893 1064.8 6753.4 984.1 6753.4 822.9 6893 742.2ZM7312 822.9 7312 984.1 7172.3 1064.8 7032.7 984.1 7032.7 822.9 7172.3 742.2ZM7591.3 822.9 7591.3 984.1 7451.6 1064.8 7312 984.1 7312 822.9 7451.6 742.2ZM7870.6 822.9 7870.6 984.1 7730.9 1064.8 7591.3 984.1 7591.3 822.9 7730.9 742.2ZM8149.9 822.9 8149.9 984.1 8010.2 1064.8 7870.6 984.1 7870.6 822.9 8010.2 742.2ZM469.3 1064.8 469.3 1226 329.6 1306.6 190 1226 190 1064.8 329.6 984.1ZM748.6 1064.8 748.6 1226 608.9 1306.6 469.3 1226 469.3 1064.8 608.9 984.1ZM1027.9 1064.8 1027.9 1226 888.2 1306.6 748.6 1226 748.6 1064.8 888.2 984.1ZM1307.2 1064.8 1307.2 1226 1167.5 1306.6 1027.9 1226 1027.9 1064.8 1167.5 984.1ZM1586.5 1064.8 1586.5 1226 1446.8 1306.6 1307.2 1226 1307.2 1064.8 1446.8 984.1ZM1865.8 1064.8 1865.8 1226 1726.1 1306.6 1586.5 1226 1586.5 1064.8 1726.1 984.1ZM2145.1 1064.8 2145.1 1226 2005.4 1306.6 1865.8 1226 1865.8 1064.8 2005.4 984.1ZM2424.3 1064.8 2424.3 1226 2284.7 1306.6 2145.1 1226 2145.1 1064.8 2284.7 984.1ZM2703.6 1064.8 2703.6 1226 2564 1306.6 2424.3 1226 2424.3 1064.8 2564 984.1ZM2982.9 1064.8 2982.9 1226 2843.3 1306.6 2703.6 1226 2703.6 1064.8 2843.3 984.1ZM3262.2 1064.8 3262.2 1226 3122.6 1306.6 2982.9 1226 2982.9 1064.8 3122.6 984.1ZM3541.5 1064.8 3541.5 1226 3401.9 1306.6 3262.2 1226 3262.2 1064.8 3401.9 984.1ZM3820.8 1064.8 3820.8 1226 3681.2 1306.6 3541.5 1226 3541.5 1064.8 3681.2 984.1ZM4100.1 1064.8 4100.1 1226 3960.5 1306.6 3820.8 1226 3820.8 1064.8 3960.5 984.1ZM4379.4 1064.8 4379.4 1226 4239.8 1306.6 4100.1 1226 4100.1 1064.8 4239.8 984.1ZM4658.7 1064.8 4658.7 1226 4519 1306.6 4379.4 1226 4379.4 1064.8 4519 984.1ZM4938 1064.8 4938 1226 4798.3 1306.6 4658.7 1226 4658.7 1064.8 4798.3 984.1ZM5217.3 1064.8 5217.3 1226 5077.6 1306.6 4938 1226 4938 1064.8 5077.6 984.1ZM6334.5 1064.8 6334.5 1226 6194.8 1306.6 6055.2 1226 6055.2 1064.8 6194.8 984.1ZM6613.7 1064.8 6613.7 1226 6474.1 1306.6 6334.5 1226 6334.5 1064.8 6474.1 984.1ZM6893 1064.8 6893 1226 6753.4 1306.6 6613.7 1226 6613.7 1064.8 6753.4 984.1ZM7172.3 1064.8 7172.3 1226 7032.7 1306.6 6893 1226 6893 1064.8 7032.7 984.1ZM7451.6 1064.8 7451.6 1226 7312 1306.6 7172.3 1226 7172.3 1064.8 7312 984.1ZM7730.9 1064.8 7730.9 1226 7591.3 1306.6 7451.6 1226 7451.6 1064.8 7591.3 984.1ZM8010.2 1064.8 8010.2 1226 7870.6 1306.6 7730.9 1226 7730.9 1064.8 7870.6 984.1ZM8289.5 1064.8 8289.5 1226 8149.9 1306.6 8010.2 1226 8010.2 1064.8 8149.9 984.1ZM329.6 1306.6 329.6 1467.9 190 1548.5 50.4 1467.9 50.4 1306.6 190 1226ZM608.9 1306.6 608.9 1467.9 469.3 1548.5 329.6 1467.9 329.6 1306.6 469.3 1226ZM888.2 1306.6 888.2 1467.9 748.6 1548.5 608.9 1467.9 608.9 1306.6 748.6 1226ZM1167.5 1306.6 1167.5 1467.9 1027.9 1548.5 888.2 1467.9 888.2 1306.6 1027.9 1226ZM1446.8 1306.6 1446.8 1467.9 1307.2 1548.5 1167.5 1467.9 1167.5 1306.6 1307.2 1226ZM1726.1 1306.6 1726.1 1467.9 1586.5 1548.5 1446.8 1467.9 1446.8 1306.6 1586.5 1226ZM2005.4 1306.6 2005.4 1467.9 1865.8 1548.5 1726.1 1467.9 1726.1 1306.6 1865.8 1226ZM2284.7 1306.6 2284.7 1467.9 2145.1 1548.5 2005.4 1467.9 2005.4 1306.6 2145.1 1226ZM2564 1306.6 2564 1467.9 2424.3 1548.5 2284.7 1467.9 2284.7 1306.6 2424.3 1226ZM2843.3 1306.6 2843.3 1467.9 2703.6 1548.5 2564 1467.9 2564 1306.6 2703.6 1226ZM3122.6 1306.6 3122.6 1467.9 2982.9 1548.5 2843.3 1467.9 2843.3 1306.6 2982.9 1226ZM3401.9 1306.6 3401.9 1467.9 3262.2 1548.5 3122.6 1467.9 3122.6 1306.6 3262.2 1226ZM3681.2 1306.6 3681.2 1467.9 3541.5 1548.5 3401.9 1467.9 3401.9 1306.6 3541.5 1226ZM3960.5 1306.6 3960.5 1467.9 3820.8 1548.5 3681.2 1467.9 3681.2 1306.6 3820.8 1226ZM4239.8 1306.6 4239.8 1467.9 4100.1 1548.5 3960.5 1467.9 3960.5 1306.6 4100.1 1226ZM4519 1306.6 4519 1467.9 4379.4 1548.5 4239.8 1467.9 4239.8 1306.6 4379.4 1226ZM4798.3 1306.6 4798.3 1467.9 4658.7 1548.5 4519 1467.9 4519 1306.6 4658.7 1226ZM5077.6 1306.6 5077.6 1467.9 4938 1548.5 4798.3 1467.9 4798.3 1306.6 4938 1226ZM5356.9 1306.6 5356.9 1467.9 5217.3 1548.5 5077.6 1467.9 5077.6 1306.6 5217.3 1226ZM6194.8 1306.6 6194.8 1467.9 6055.2 1548.5 5915.5 1467.9 5915.5 1306.6 6055.2 1226ZM6474.1 1306.6 6474.1 1467.9 6334.5 1548.5 6194.8 1467.9 6194.8 1306.6 6334.5 1226ZM6753.4 1306.6 6753.4 1467.9 6613.7 1548.5 6474.1 1467.9 6474.1 1306.6 6613.7 1226ZM7032.7 1306.6 7032.7 1467.9 6893 1548.5 6753.4 1467.9 6753.4 1306.6 6893 1226ZM7312 1306.6 7312 1467.9 7172.3 1548.5 7032.7 1467.9 7032.7 1306.6 7172.3 1226ZM7591.3 1306.6 7591.3 1467.9 7451.6 1548.5 7312 1467.9 7312 1306.6 7451.6 1226ZM7870.6 1306.6 7870.6 1467.9 7730.9 1548.5 7591.3 1467.9 7591.3 1306.6 7730.9 1226ZM8149.9 1306.6 8149.9 1467.9 8010.2 1548.5 7870.6 1467.9 7870.6 1306.6 8010.2 1226ZM469.3 1548.5 469.3 1709.8 329.6 1790.4 190 1709.8 190 1548.5 329.6 1467.9ZM748.6 1548.5 748.6 1709.8 608.9 1790.4 469.3 1709.8 469.3 1548.5 608.9 1467.9ZM1027.9 1548.5 1027.9 1709.8 888.2 1790.4 748.6 1709.8 748.6 1548.5 888.2 1467.9ZM1307.2 1548.5 1307.2 1709.8 1167.5 1790.4 1027.9 1709.8 1027.9 1548.5 1167.5 1467.9ZM1586.5 1548.5 1586.5 1709.8 1446.8 1790.4 1307.2 1709.8 1307.2 1548.5 1446.8 1467.9ZM1865.8 1548.5 1865.8 1709.8 1726.1 1790.4 1586.5 1709.8 1586.5 1548.5 1726.1 1467.9ZM2145.1 1548.5 2145.1 1709.8 2005.4 1790.4 1865.8 1709.8 1865.8 1548.5 2005.4 1467.9ZM2424.3 1548.5 2424.3 1709.8 2284.7 1790.4 2145.1 1709.8 2145.1 1548.5 2284.7 1467.9ZM2703.6 1548.5 2703.6 1709.8 2564 1790.4 2424.3 1709.8 2424.3 1548.5 2564 1467.9ZM2982.9 1548.5 2982.9 1709.8 2843.3 1790.4 2703.6 1709.8 2703.6 1548.5 2843.3 1467.9ZM3262.2 1548.5 3262.2 1709.8 3122.6 1790.4 2982.9 1709.8 2982.9 1548.5 3122.6 1467.9ZM3541.5 1548.5 3541.5 1709.8 3401.9 1790.4 3262.2 1709.8 3262.2 1548.5 3401.9 1467.9ZM3820.8 1548.5 3820.8 1709.8 3681.2 1790.4 3541.5 1709.8 3541.5 1548.5 3681.2 1467.9ZM4100.1 1548.5 4100.1 1709.8 3960.5 1790.4 3820.8 1709.8 3820.8 1548.5 3960.5 1467.9ZM4379.4 1548.5 4379.4 1709.8 4239.8 1790.4 4100.1 1709.8 4100.1 1548.5 4239.8 1467.9ZM4658.7 1548.5 4658.7 1709.8 4519 1790.4 4379.4 1709.8 4379.4 1548.5 4519 1467.9ZM4938 1548.5 4938 1709.8 4798.3 1790.4 4658.7 1709.8 4658.7 1548.5 4798.3 1467.9ZM5217.3 1548.5 5217.3 1709.8 5077.6 1790.4 4938 1709.8 4938 1548.5 5077.6 1467.9ZM5775.9 1548.5 5775.9 1709.8 5636.2 1790.4 5496.6 1709.8 5496.6 1548.5 5636.2 1467.9ZM6055.2 1548.5 6055.2 1709.8 5915.5 1790.4 5775.9 1709.8 5775.9 1548.5 5915.5 1467.9ZM6334.5 1548.5 6334.5 1709.8 6194.8 1790.4 6055.2 1709.8 6055.2 1548.5 6194.8 1467.9ZM6613.7 1548.5 6613.7 1709.8 6474.1 1790.4 6334.5 1709.8 6334.5 1548.5 6474.1 1467.9ZM6893 1548.5 6893 1709.8 6753.4 1790.4 6613.7 1709.8 6613.7 1548.5 6753.4 1467.9ZM7172.3 1548.5 7172.3 1709.8 7032.7 1790.4 6893 1709.8 6893 1548.5 7032.7 1467.9ZM7451.6 1548.5 7451.6 1709.8 7312 1790.4 7172.3 1709.8 7172.3 1548.5 7312 1467.9ZM7730.9 1548.5 7730.9 1709.8 7591.3 1790.4 7451.6 1709.8 7451.6 1548.5 7591.3 1467.9ZM8010.2 1548.5 8010.2 1709.8 7870.6 1790.4 7730.9 1709.8 7730.9 1548.5 7870.6 1467.9ZM8289.5 1548.5 8289.5 1709.8 8149.9 1790.4 8010.2 1709.8 8010.2 1548.5 8149.9 1467.9ZM329.6 1790.4 329.6 1951.6 190 2032.2 50.4 1951.6 50.4 1790.4 190 1709.8ZM608.9 1790.4 608.9 1951.6 469.3 2032.2 329.6 1951.6 329.6 1790.4 469.3 1709.8ZM888.2 1790.4 888.2 1951.6 748.6 2032.2 608.9 1951.6 608.9 1790.4 748.6 1709.8ZM1167.5 1790.4 1167.5 1951.6 1027.9 2032.2 888.2 1951.6 888.2 1790.4 1027.9 1709.8ZM1446.8 1790.4 1446.8 1951.6 1307.2 2032.2 1167.5 1951.6 1167.5 1790.4 1307.2 1709.8ZM1726.1 1790.4 1726.1 1951.6 1586.5 2032.2 1446.8 1951.6 1446.8 1790.4 1586.5 1709.8ZM2005.4 1790.4 2005.4 1951.6 1865.8 2032.2 1726.1 1951.6 1726.1 1790.4 1865.8 1709.8ZM2284.7 1790.4 2284.7 1951.6 2145.1 2032.2 2005.4 1951.6 2005.4 1790.4 2145.1 1709.8ZM2564 1790.4 2564 1951.6 2424.3 2032.2 2284.7 1951.6 2284.7 1790.4 2424.3 1709.8ZM2843.3 1790.4 2843.3 1951.6 2703.6 2032.2 2564 1951.6 2564 1790.4 2703.6 1709.8ZM3122.6 1790.4 3122.6 1951.6 2982.9 2032.2 2843.3 1951.6 2843.3 1790.4 2982.9 1709.8ZM3401.9 1790.4 3401.9 1951.6 3262.2 2032.2 3122.6 1951.6 3122.6 1790.4 3262.2 1709.8ZM3681.2 1790.4 3681.2 1951.6 3541.5 2032.2 3401.9 1951.6 3401.9 1790.4 3541.5 1709.8ZM3960.5 1790.4 3960.5 1951.6 3820.8 2032.2 3681.2 1951.6 3681.2 1790.4 3820.8 1709.8ZM4239.8 1790.4 4239.8 1951.6 4100.1 2032.2 3960.5 1951.6 3960.5 1790.4 4100.1 1709.8ZM4519 1790.4 4519 1951.6 4379.4 2032.2 4239.8 1951.6 4239.8 1790.4 4379.4 1709.8ZM4798.3 1790.4 4798.3 1951.6 4658.7 2032.2 4519 1951.6 4519 1790.4 4658.7 1709.8ZM5077.6 1790.4 5077.6 1951.6 4938 2032.2 4798.3 1951.6 4798.3 1790.4 4938 1709.8ZM5356.9 1790.4 5356.9 1951.6 5217.3 2032.2 5077.6 1951.6 5077.6 1790.4 5217.3 1709.8ZM5636.2 1790.4 5636.2 1951.6 5496.6 2032.2 5356.9 1951.6 5356.9 1790.4 5496.6 1709.8ZM5915.5 1790.4 5915.5 1951.6 5775.9 2032.2 5636.2 1951.6 5636.2 1790.4 5775.9 1709.8ZM6194.8 1790.4 6194.8 1951.6 6055.2 2032.2 5915.5 1951.6 5915.5 1790.4 6055.2 1709.8ZM6474.1 1790.4 6474.1 1951.6 6334.5 2032.2 6194.8 1951.6 6194.8 1790.4 6334.5 1709.8ZM6753.4 1790.4 6753.4 1951.6 6613.7 2032.2 6474.1 1951.6 6474.1 1790.4 6613.7 1709.8ZM7032.7 1790.4 7032.7 1951.6 6893 2032.2 6753.4 1951.6 6753.4 1790.4 6893 1709.8ZM7312 1790.4 7312 1951.6 7172.3 2032.2 7032.7 1951.6 7032.7 1790.4 7172.3 1709.8ZM7591.3 1790.4 7591.3 1951.6 7451.6 2032.2 7312 1951.6 7312 1790.4 7451.6 1709.8ZM7870.6 1790.4 7870.6 1951.6 7730.9 2032.2 7591.3 1951.6 7591.3 1790.4 7730.9 1709.8ZM8149.9 1790.4 8149.9 1951.6 8010.2 2032.2 7870.6 1951.6 7870.6 1790.4 8010.2 1709.8ZM469.3 2032.2 469.3 2193.5 329.6 2274.1 190 2193.5 190 2032.2 329.6 1951.6ZM748.6 2032.2 748.6 2193.5 608.9 2274.1 469.3 2193.5 469.3 2032.2 608.9 1951.6ZM1027.9 2032.2 1027.9 2193.5 888.2 2274.1 748.6 2193.5 748.6 2032.2 888.2 1951.6ZM1307.2 2032.2 1307.2 2193.5 1167.5 2274.1 1027.9 2193.5 1027.9 2032.2 1167.5 1951.6ZM1586.5 2032.2 1586.5 2193.5 1446.8 2274.1 1307.2 2193.5 1307.2 2032.2 1446.8 1951.6ZM1865.8 2032.2 1865.8 2193.5 1726.1 2274.1 1586.5 2193.5 1586.5 2032.2 1726.1 1951.6ZM2145.1 2032.2 2145.1 2193.5 2005.4 2274.1 1865.8 2193.5 1865.8 2032.2 2005.4 1951.6ZM2424.3 2032.2 2424.3 2193.5 2284.7 2274.1 2145.1 2193.5 2145.1 2032.2 2284.7 1951.6ZM2703.6 2032.2 2703.6 2193.5 2564 2274.1 2424.3 2193.5 2424.3 2032.2 2564 1951.6ZM2982.9 2032.2 2982.9 2193.5 2843.3 2274.1 2703.6 2193.5 2703.6 2032.2 2843.3 1951.6ZM3262.2 2032.2 3262.2 2193.5 3122.6 2274.1 2982.9 2193.5 2982.9 2032.2 3122.6 1951.6ZM3541.5 2032.2 3541.5 2193.5 3401.9 2274.1 3262.2 2193.5 3262.2 2032.2 3401.9 1951.6ZM3820.8 2032.2 3820.8 2193.5 3681.2 2274.1 3541.5 2193.5 3541.5 2032.2 3681.2 1951.6ZM4100.1 2032.2 4100.1 2193.5 3960.5 2274.1 3820.8 2193.5 3820.8 2032.2 3960.5 1951.6ZM4379.4 2032.2 4379.4 2193.5 4239.8 2274.1 4100.1 2193.5 4100.1 2032.2 4239.8 1951.6ZM4658.7 2032.2 4658.7 2193.5 4519 2274.1 4379.4 2193.5 4379.4 2032.2 4519 1951.6ZM4938 2032.2 4938 2193.5 4798.3 2274.1 4658.7 2193.5 4658.7 2032.2 4798.3 1951.6ZM5217.3 2032.2 5217.3 2193.5 5077.6 2274.1 4938 2193.5 4938 2032.2 5077.6 1951.6ZM5496.6 2032.2 5496.6 2193.5 5356.9 2274.1 5217.3 2193.5 5217.3 2032.2 5356.9 1951.6ZM5775.9 2032.2 5775.9 2193.5 5636.2 2274.1 5496.6 2193.5 5496.6 2032.2 5636.2 1951.6ZM6055.2 2032.2 6055.2 2193.5 5915.5 2274.1 5775.9 2193.5 5775.9 2032.2 5915.5 1951.6ZM6334.5 2032.2 6334.5 2193.5 6194.8 2274.1 6055.2 2193.5 6055.2 2032.2 6194.8 1951.6ZM6613.7 2032.2 6613.7 2193.5 6474.1 2274.1 6334.5 2193.5 6334.5 2032.2 6474.1 1951.6ZM6893 2032.2 6893 2193.5 6753.4 2274.1 6613.7 2193.5 6613.7 2032.2 6753.4 1951.6ZM7172.3 2032.2 7172.3 2193.5 7032.7 2274.1 6893 2193.5 6893 2032.2 7032.7 1951.6ZM7451.6 2032.2 7451.6 2193.5 7312 2274.1 7172.3 2193.5 7172.3 2032.2 7312 1951.6ZM7730.9 2032.2 7730.9 2193.5 7591.3 2274.1 7451.6 2193.5 7451.6 2032.2 7591.3 1951.6ZM8010.2 2032.2 8010.2 2193.5 7870.6 2274.1 7730.9 2193.5 7730.9 2032.2 7870.6 1951.6ZM8289.5 2032.2 8289.5 2193.5 8149.9 2274.1 8010.2 2193.5 8010.2 2032.2 8149.9 1951.6ZM329.6 2274.1 329.6 2435.4 190 2516 50.4 2435.4 50.4 2274.1 190 2193.5ZM608.9 2274.1 608.9 2435.4 469.3 2516 329.6 2435.4 329.6 2274.1 469.3 2193.5ZM888.2 2274.1 888.2 2435.4 748.6 2516 608.9 2435.4 608.9 2274.1 748.6 2193.5ZM1167.5 2274.1 1167.5 2435.4 1027.9 2516 888.2 2435.4 888.2 2274.1 1027.9 2193.5ZM1446.8 2274.1 1446.8 2435.4 1307.2 2516 1167.5 2435.4 1167.5 2274.1 1307.2 2193.5ZM1726.1 2274.1 1726.1 2435.4 1586.5 2516 1446.8 2435.4 1446.8 2274.1 1586.5 2193.5ZM2005.4 2274.1 2005.4 2435.4 1865.8 2516 1726.1 2435.4 1726.1 2274.1 1865.8 2193.5ZM2284.7 2274.1 2284.7 2435.4 2145.1 2516 2005.4 2435.4 2005.4 2274.1 2145.1 2193.5ZM2564 2274.1 2564 2435.4 2424.3 2516 2284.7 2435.4 2284.7 2274.1 2424.3 2193.5ZM2843.3 2274.1 2843.3 2435.4 2703.6 2516 2564 2435.4 2564 2274.1 2703.6 2193.5ZM3122.6 2274.1 3122.6 2435.4 2982.9 2516 2843.3 2435.4 2843.3 2274.1 2982.9 2193.5ZM3401.9 2274.1 3401.9 2435.4 3262.2 2516 3122.6 2435.4 3122.6 2274.1 3262.2 2193.5ZM3681.2 2274.1 3681.2 2435.4 3541.5 2516 3401.9 2435.4 3401.9 2274.1 3541.5 2193.5ZM3960.5 2274.1 3960.5 2435.4 3820.8 2516 3681.2 2435.4 3681.2 2274.1 3820.8 2193.5ZM4239.8 2274.1 4239.8 2435.4 4100.1 2516 3960.5 2435.4 3960.5 2274.1 4100.1 2193.5ZM4519 2274.1 4519 2435.4 4379.4 2516 4239.8 2435.4 4239.8 2274.1 4379.4 2193.5ZM4798.3 2274.1 4798.3 2435.4 4658.7 2516 4519 2435.4 4519 2274.1 4658.7 2193.5ZM5077.6 2274.1 5077.6 2435.4 4938 2516 4798.3 2435.4 4798.3 2274.1 4938 2193.5ZM5356.9 2274.1 5356.9 2435.4 5217.3 2516 5077.6 2435.4 5077.6 2274.1 5217.3 2193.5ZM5636.2 2274.1 5636.2 2435.4 5496.6 2516 5356.9 2435.4 5356.9 2274.1 5496.6 2193.5ZM5915.5 2274.1 5915.5 2435.4 5775.9 2516 5636.2 2435.4 5636.2 2274.1 5775.9 2193.5ZM6194.8 2274.1 6194.8 2435.4 6055.2 2516 5915.5 2435.4 5915.5 2274.1 6055.2 2193.5ZM6474.1 2274.1 6474.1 2435.4 6334.5 2516 6194.8 2435.4 6194.8 2274.1 6334.5 2193.5ZM6753.4 2274.1 6753.4 2435.4 6613.7 2516 6474.1 2435.4 6474.1 2274.1 6613.7 2193.5ZM7032.7 2274.1 7032.7 2435.4 6893 2516 6753.4 2435.4 6753.4 2274.1 6893 2193.5ZM7312 2274.1 7312 2435.4 7172.3 2516 7032.7 2435.4 7032.7 2274.1 7172.3 2193.5ZM7591.3 2274.1 7591.3 2435.4 7451.6 2516 7312 2435.4 7312 2274.1 7451.6 2193.5ZM7870.6 2274.1 7870.6 2435.4 7730.9 2516 7591.3 2435.4 7591.3 2274.1 7730.9 2193.5ZM8149.9 2274.1 8149.9 2435.4 8010.2 2516 7870.6 2435.4 7870.6 2274.1 8010.2 2193.5ZM469.3 2516 469.3 2677.2 329.6 2757.9 190 2677.2 190 2516 329.6 2435.4ZM748.6 2516 748.6 2677.2 608.9 2757.9 469.3 2677.2 469.3 2516 608.9 2435.4ZM1027.9 2516 1027.9 2677.2 888.2 2757.9 748.6 2677.2 748.6 2516 888.2 2435.4ZM1307.2 2516 1307.2 2677.2 1167.5 2757.9 1027.9 2677.2 1027.9 2516 1167.5 2435.4ZM1586.5 2516 1586.5 2677.2 1446.8 2757.9 1307.2 2677.2 1307.2 2516 1446.8 2435.4ZM1865.8 2516 1865.8 2677.2 1726.1 2757.9 1586.5 2677.2 1586.5 2516 1726.1 2435.4ZM2145.1 2516 2145.1 2677.2 2005.4 2757.9 1865.8 2677.2 1865.8 2516 2005.4 2435.4ZM2424.3 2516 2424.3 2677.2 2284.7 2757.9 2145.1 2677.2 2145.1 2516 2284.7 2435.4ZM2703.6 2516 2703.6 2677.2 2564 2757.9 2424.3 2677.2 2424.3 2516 2564 2435.4ZM2982.9 2516 2982.9 2677.2 2843.3 2757.9 2703.6 2677.2 2703.6 2516 2843.3 2435.4ZM3262.2 2516 3262.2 2677.2 3122.6 2757.9 2982.9 2677.2 2982.9 2516 3122.6 2435.4ZM3541.5 2516 3541.5 2677.2 3401.9 2757.9 3262.2 2677.2 3262.2 2516 3401.9 2435.4ZM3820.8 2516 3820.8 2677.2 3681.2 2757.9 3541.5 2677.2 3541.5 2516 3681.2 2435.4ZM4100.1 2516 4100.1 2677.2 3960.5 2757.9 3820.8 2677.2 3820.8 2516 3960.5 2435.4ZM4379.4 2516 4379.4 2677.2 4239.8 2757.9 4100.1 2677.2 4100.1 2516 4239.8 2435.4ZM4658.7 2516 4658.7 2677.2 4519 2757.9 4379.4 2677.2 4379.4 2516 4519 2435.4ZM4938 2516 4938 2677.2 4798.3 2757.9 4658.7 2677.2 4658.7 2516 4798.3 2435.4ZM5217.3 2516 5217.3 2677.2 5077.6 2757.9 4938 2677.2 4938 2516 5077.6 2435.4ZM5496.6 2516 5496.6 2677.2 5356.9 2757.9 5217.3 2677.2 5217.3 2516 5356.9 2435.4ZM5775.9 2516 5775.9 2677.2 5636.2 2757.9 5496.6 2677.2 5496.6 2516 5636.2 2435.4ZM6055.2 2516 6055.2 2677.2 5915.5 2757.9 5775.9 2677.2 5775.9 2516 5915.5 2435.4ZM6334.5 2516 6334.5 2677.2 6194.8 2757.9 6055.2 2677.2 6055.2 2516 6194.8 2435.4ZM6613.7 2516 6613.7 2677.2 6474.1 2757.9 6334.5 2677.2 6334.5 2516 6474.1 2435.4ZM6893 2516 6893 2677.2 6753.4 2757.9 6613.7 2677.2 6613.7 2516 6753.4 2435.4ZM7172.3 2516 7172.3 2677.2 7032.7 2757.9 6893 2677.2 6893 2516 7032.7 2435.4ZM7451.6 2516 7451.6 2677.2 7312 2757.9 7172.3 2677.2 7172.3 2516 7312 2435.4ZM7730.9 2516 7730.9 2677.2 7591.3 2757.9 7451.6 2677.2 7451.6 2516 7591.3 2435.4ZM8010.2 2516 8010.2 2677.2 7870.6 2757.9 7730.9 2677.2 7730.9 2516 7870.6 2435.4ZM8289.5 2516 8289.5 2677.2 8149.9 2757.9 8010.2 2677.2 8010.2 2516 8149.9 2435.4ZM329.6 2757.9 329.6 2919.1 190 2999.8 50.4 2919.1 50.4 2757.9 190 2677.2ZM608.9 2757.9 608.9 2919.1 469.3 2999.8 329.6 2919.1 329.6 2757.9 469.3 2677.2ZM888.2 2757.9 888.2 2919.1 748.6 2999.8 608.9 2919.1 608.9 2757.9 748.6 2677.2ZM1167.5 2757.9 1167.5 2919.1 1027.9 2999.8 888.2 2919.1 888.2 2757.9 1027.9 2677.2ZM1446.8 2757.9 1446.8 2919.1 1307.2 2999.8 1167.5 2919.1 1167.5 2757.9 1307.2 2677.2ZM1726.1 2757.9 1726.1 2919.1 1586.5 2999.8 1446.8 2919.1 1446.8 2757.9 1586.5 2677.2ZM2005.4 2757.9 2005.4 2919.1 1865.8 2999.8 1726.1 2919.1 1726.1 2757.9 1865.8 2677.2ZM2284.7 2757.9 2284.7 2919.1 2145.1 2999.8 2005.4 2919.1 2005.4 2757.9 2145.1 2677.2ZM2564 2757.9 2564 2919.1 2424.3 2999.8 2284.7 2919.1 2284.7 2757.9 2424.3 2677.2ZM2843.3 2757.9 2843.3 2919.1 2703.6 2999.8 2564 2919.1 2564 2757.9 2703.6 2677.2ZM3122.6 2757.9 3122.6 2919.1 2982.9 2999.8 2843.3 2919.1 2843.3 2757.9 2982.9 2677.2ZM3401.9 2757.9 3401.9 2919.1 3262.2 2999.8 3122.6 2919.1 3122.6 2757.9 3262.2 2677.2ZM3681.2 2757.9 3681.2 2919.1 3541.5 2999.8 3401.9 2919.1 3401.9 2757.9 3541.5 2677.2ZM3960.5 2757.9 3960.5 2919.1 3820.8 2999.8 3681.2 2919.1 3681.2 2757.9 3820.8 2677.2ZM4239.8 2757.9 4239.8 2919.1 4100.1 2999.8 3960.5 2919.1 3960.5 2757.9 4100.1 2677.2ZM4519 2757.9 4519 2919.1 4379.4 2999.8 4239.8 2919.1 4239.8 2757.9 4379.4 2677.2ZM4798.3 2757.9 4798.3 2919.1 4658.7 2999.8 4519 2919.1 4519 2757.9 4658.7 2677.2ZM5077.6 2757.9 5077.6 2919.1 4938 2999.8 4798.3 2919.1 4798.3 2757.9 4938 2677.2ZM5356.9 2757.9 5356.9 2919.1 5217.3 2999.8 5077.6 2919.1 5077.6 2757.9 5217.3 2677.2ZM5636.2 2757.9 5636.2 2919.1 5496.6 2999.8 5356.9 2919.1 5356.9 2757.9 5496.6 2677.2ZM5915.5 2757.9 5915.5 2919.1 5775.9 2999.8 5636.2 2919.1 5636.2 2757.9 5775.9 2677.2ZM6194.8 2757.9 6194.8 2919.1 6055.2 2999.8 5915.5 2919.1 5915.5 2757.9 6055.2 2677.2ZM6474.1 2757.9 6474.1 2919.1 6334.5 2999.8 6194.8 2919.1 6194.8 2757.9 6334.5 2677.2ZM6753.4 2757.9 6753.4 2919.1 6613.7 2999.8 6474.1 2919.1 6474.1 2757.9 6613.7 2677.2ZM7032.7 2757.9 7032.7 2919.1 6893 2999.8 6753.4 2919.1 6753.4 2757.9 6893 2677.2ZM7312 2757.9 7312 2919.1 7172.3 2999.8 7032.7 2919.1 7032.7 2757.9 7172.3 2677.2ZM7591.3 2757.9 7591.3 2919.1 7451.6 2999.8 7312 2919.1 7312 2757.9 7451.6 2677.2ZM7870.6 2757.9 7870.6 2919.1 7730.9 2999.8 7591.3 2919.1 7591.3 2757.9 7730.9 2677.2ZM8149.9 2757.9 8149.9 2919.1 8010.2 2999.8 7870.6 2919.1 7870.6 2757.9 8010.2 2677.2Z" fill="#05060a59" stroke="#b9c2cc" stroke-width="1.1" stroke-dasharray="5 4" stroke-opacity="0.45"/><path d="M2843.3 984.1L2564.0 822.9M3122.6 984.1L2843.3 822.9M3401.9 984.1L3122.6 822.9M3681.2 984.1L3401.9 822.9M3681.2 1467.9L3541.5 1387.2" fill="none" stroke="#4da6d9" stroke-width="8.9" stroke-linecap="round" stroke-opacity="0.8"/><path d="M2843.3 822.9L2843.3 984.1M3122.6 822.9L3122.6 984.1M3401.9 822.9L3401.9 984.1" fill="none" stroke="#4da6d9" stroke-width="12.1" stroke-linecap="round" stroke-opacity="0.85"/><g id="km-path"><path d="M2564 822.9 2564 984.1 2424.3 1064.8 2284.7 984.1 2284.7 822.9 2424.3 742.2ZM2703.6 1064.8 2703.6 1226 2564 1306.6 2424.3 1226 2424.3 1064.8 2564 984.1ZM2982.9 1064.8 2982.9 1226 2843.3 1306.6 2703.6 1226 2703.6 1064.8 2843.3 984.1ZM3262.2 1064.8 3262.2 1226 3122.6 1306.6 2982.9 1226 2982.9 1064.8 3122.6 984.1ZM3541.5 1064.8 3541.5 1226 3401.9 1306.6 3262.2 1226 3262.2 1064.8 3401.9 984.1Z" fill="#5b8fb02e" stroke="#7fc3e8" stroke-width="1.4" stroke-opacity="0.7"/><path d="M2424.3 1000.2 L2564.0 1145.4 L2843.3 1145.4 L3122.6 1145.4 L3401.9 1145.4" fill="none" stroke="#0b1015" stroke-width="21.0" stroke-linecap="round" stroke-linejoin="round" stroke-opacity="0.55"/><path d="M2424.3 1000.2 L2564.0 1145.4 L2843.3 1145.4 L3122.6 1145.4 L3401.9 1145.4" fill="none" stroke="#7fc3e8" stroke-width="12.9" stroke-linecap="round" stroke-linejoin="round"/><path d="M3401.9 1145.4 L3364.6 1173.8 L3364.6 1116.9 Z" fill="#7fc3e8" stroke="#0b1015" stroke-width="4.8" stroke-linejoin="round"/><rect x="3161.7" y="988.2" width="480.4" height="82.2" rx="41.1" fill="#0b1015e6" stroke="#7fc3e8" stroke-width="4.35"/><text x="3401.9" y="1046.7" text-anchor="middle" font-size="48.4" fill="#e9e0cf" font-weight="700" font-family="Cinzel, Georgia, serif">7 act · 7 days</text></g><text x="5636.2" y="206.9" text-anchor="middle" font-size="72.6">🛣️</text><text x="5915.5" y="206.9" text-anchor="middle" font-size="72.6">🛣️</text><text x="6194.8" y="206.9" text-anchor="middle" font-size="72.6">🛣️</text><text x="6474.1" y="206.9" text-anchor="middle" font-size="72.6">🛣️</text><text x="5496.6" y="448.8" text-anchor="middle" font-size="72.6">🛣️</text><text x="6613.7" y="448.8" text-anchor="middle" font-size="72.6">🛣️</text><text x="6893.0" y="448.8" text-anchor="middle" font-size="72.6">🛣️</text><text x="7172.3" y="448.8" text-anchor="middle" font-size="72.6">🛣️</text><text x="7451.6" y="448.8" text-anchor="middle" font-size="72.6">🛣️</text><text x="7689.2" y="448.8" text-anchor="middle" font-size="72.6">🏰</text><text x="7772.6" y="448.8" text-anchor="middle" font-size="72.6">🛣️</text><text x="5217.3" y="932.5" text-anchor="middle" font-size="72.6">🛣️</text><text x="5496.6" y="1416.3" text-anchor="middle" font-size="72.6">🛣️</text><text x="5315.2" y="1658.2" text-anchor="middle" font-size="72.6">🏘️</text><text x="5398.6" y="1658.2" text-anchor="middle" font-size="72.6">🛣️</text><circle cx="2424.3" cy="1000.2" r="38.7" fill="#12100bee"/><text x="2424.3" y="1014.2" text-anchor="middle" font-size="36.8" fill="#d7b263" font-weight="700" font-family="Cinzel, Georgia, serif">A</text><defs><clipPath id="kmtok8_4_0"><circle cx="2424.3" cy="1000.2" r="38.7"/></clipPath></defs><image href="/assets/characters/aldric.png" x="2385.6" y="961.5" width="77.4" height="77.4" preserveAspectRatio="xMidYMid slice" clip-path="url(#kmtok8_4_0)"/><circle cx="2424.3" cy="1000.2" r="38.7" fill="none" stroke="#d7b263" stroke-width="8.1"/><circle cx="2424.3" cy="1000.2" r="51.1" fill="none" stroke="#12100b" stroke-width="7.3" stroke-opacity="0.75"/><circle cx="2424.3" cy="1000.2" r="51.1" fill="none" stroke="#ffffff" stroke-width="4.5" stroke-dasharray="9.7 7.3"/><circle cx="4658.7" cy="1967.8" r="38.7" fill="#12100bee"/><text x="4658.7" y="1981.7" text-anchor="middle" font-size="36.8" fill="#d7b263" font-weight="700" font-family="Cinzel, Georgia, serif">B</text><circle cx="4658.7" cy="1967.8" r="38.7" fill="none" stroke="#d7b263" stroke-width="8.1"/><circle cx="4798.3" cy="2209.6" r="38.7" fill="#12100bee"/><text x="4798.3" y="2223.6" text-anchor="middle" font-size="36.8" fill="#d7b263" font-weight="700" font-family="Cinzel, Georgia, serif">C</text><circle cx="4798.3" cy="2209.6" r="38.7" fill="none" stroke="#d7b263" stroke-width="8.1"/><circle cx="2703.6" cy="903.5" r="25.8" fill="#12100bcc"/><text x="2703.6" y="906.1" text-anchor="middle" font-size="21.9">⛵</text><g><circle cx="2703.6" cy="915.9" r="8.8" fill="#12100bee"/><text x="2703.6" y="919.0" text-anchor="middle" font-size="9.2" fill="#d7b263" font-weight="700" font-family="Cinzel, Georgia, serif">D</text><circle cx="2703.6" cy="915.9" r="8.8" fill="none" stroke="#d7b263" stroke-width="4.0"/></g><circle cx="2703.6" cy="903.5" r="25.8" fill="none" stroke="#d7b263" stroke-width="6.5" stroke-dasharray="14.5 8.1"/></svg>